<svg xmlns="http://www.w3.org/2000/svg" viewBox="0 0 1200 760" fill="none">
  <rect width="1200" height="760" rx="54" fill="#EDE5D8"/>
  <rect x="72" y="76" width="1056" height="608" rx="48" fill="#FFFAF1"/>
  <rect x="112" y="118" width="488" height="520" rx="34" fill="#151412"/>
  <rect x="154" y="166" width="210" height="24" rx="12" fill="#9FC5B7"/>
  <rect x="154" y="238" width="46" height="46" rx="14" fill="#F7F2EA"/>
  <rect x="218" y="238" width="46" height="46" rx="14" fill="#F7F2EA" opacity=".42"/>
  <rect x="282" y="238" width="46" height="46" rx="14" fill="#F7F2EA" opacity=".42"/>
  <rect x="346" y="238" width="46" height="46" rx="14" fill="#28594B"/>
  <rect x="410" y="238" width="46" height="46" rx="14" fill="#F7F2EA" opacity=".42"/>
  <rect x="474" y="238" width="46" height="46" rx="14" fill="#F7F2EA" opacity=".42"/>
  <rect x="154" y="304" width="46" height="46" rx="14" fill="#F7F2EA" opacity=".42"/>
  <rect x="218" y="304" width="46" height="46" rx="14" fill="#F7F2EA" opacity=".42"/>
  <rect x="282" y="304" width="46" height="46" rx="14" fill="#9FC5B7"/>
  <rect x="346" y="304" width="46" height="46" rx="14" fill="#F7F2EA" opacity=".42"/>
  <rect x="410" y="304" width="46" height="46" rx="14" fill="#F7F2EA" opacity=".42"/>
  <rect x="474" y="304" width="46" height="46" rx="14" fill="#F7F2EA" opacity=".42"/>
  <rect x="646" y="118" width="400" height="170" rx="36" fill="#DBE8E2"/>
  <rect x="688" y="164" width="210" height="22" rx="11" fill="#28594B"/>
  <rect x="688" y="210" width="298" height="16" rx="8" fill="#151412" opacity=".25"/>
  <rect x="646" y="326" width="400" height="312" rx="36" fill="#151412"/>
  <rect x="688" y="378" width="150" height="18" rx="9" fill="#F7F2EA" opacity=".48"/>
  <rect x="688" y="430" width="258" height="60" rx="20" fill="#9FC5B7"/>
  <rect x="688" y="530" width="276" height="16" rx="8" fill="#F7F2EA" opacity=".46"/>
  <rect x="688" y="570" width="190" height="16" rx="8" fill="#F7F2EA" opacity=".3"/>
</svg>
