<svg xmlns="http://www.w3.org/2000/svg" viewBox="0 0 1200 760" fill="none">
  <rect width="1200" height="760" rx="54" fill="#EBE4D8"/>
  <rect x="64" y="64" width="1072" height="632" rx="46" fill="#151412"/>
  <rect x="104" y="104" width="210" height="552" rx="32" fill="#24211D"/>
  <rect x="144" y="152" width="72" height="72" rx="24" fill="#9FC5B7"/>
  <rect x="144" y="282" width="120" height="16" rx="8" fill="#F7F2EA" opacity=".5"/>
  <rect x="144" y="338" width="98" height="16" rx="8" fill="#F7F2EA" opacity=".26"/>
  <rect x="144" y="394" width="132" height="16" rx="8" fill="#F7F2EA" opacity=".26"/>
  <rect x="356" y="104" width="734" height="552" rx="38" fill="#FFFAF1"/>
  <rect x="400" y="154" width="250" height="28" rx="14" fill="#28594B"/>
  <rect x="400" y="234" width="180" height="150" rx="30" fill="#DBE8E2"/>
  <rect x="620" y="234" width="180" height="150" rx="30" fill="#EDE2D5"/>
  <rect x="840" y="234" width="180" height="150" rx="30" fill="#DBE8E2"/>
  <path d="M420 544C472 476 526 512 582 458C652 390 702 490 754 424C818 342 884 438 1004 350" stroke="#28594B" stroke-width="24" stroke-linecap="round" opacity=".88"/>
  <path d="M420 586C500 530 586 570 664 522C762 462 850 548 1012 470" stroke="#9A6B4F" stroke-width="16" stroke-linecap="round" opacity=".48"/>
</svg>
