<svg xmlns="http://www.w3.org/2000/svg" viewBox="0 0 1200 760" fill="none">
  <rect width="1200" height="760" rx="54" fill="#F3ECE0"/>
  <rect x="54" y="54" width="1092" height="652" rx="42" fill="#151412"/>
  <rect x="90" y="90" width="190" height="580" rx="30" fill="#25221E"/>
  <circle cx="138" cy="142" r="22" fill="#9FC5B7"/>
  <rect x="116" y="204" width="120" height="16" rx="8" fill="#F7F2EA" opacity=".56"/>
  <rect x="116" y="260" width="102" height="16" rx="8" fill="#F7F2EA" opacity=".32"/>
  <rect x="116" y="316" width="132" height="16" rx="8" fill="#F7F2EA" opacity=".32"/>
  <rect x="116" y="372" width="96" height="16" rx="8" fill="#F7F2EA" opacity=".32"/>
  <rect x="316" y="90" width="794" height="580" rx="34" fill="#FFFAF1"/>
  <rect x="356" y="132" width="286" height="30" rx="15" fill="#28594B"/>
  <rect x="356" y="196" width="185" height="130" rx="28" fill="#DBE8E2"/>
  <rect x="572" y="196" width="185" height="130" rx="28" fill="#EFE6D8"/>
  <rect x="788" y="196" width="185" height="130" rx="28" fill="#DBE8E2"/>
  <rect x="356" y="356" width="185" height="130" rx="28" fill="#EFE6D8"/>
  <rect x="572" y="356" width="185" height="130" rx="28" fill="#DBE8E2"/>
  <rect x="788" y="356" width="185" height="130" rx="28" fill="#EFE6D8"/>
  <rect x="830" y="520" width="238" height="108" rx="28" fill="#151412"/>
  <rect x="862" y="550" width="142" height="14" rx="7" fill="#F7F2EA" opacity=".55"/>
  <rect x="862" y="582" width="96" height="14" rx="7" fill="#F7F2EA" opacity=".35"/>
  <rect x="862" y="610" width="160" height="18" rx="9" fill="#9FC5B7"/>
</svg>
